<?xml version="1.0" encoding="iso-8859-1"?>
<!-- Uploaded to: SVG Repo, www.svgrepo.com, Generator: SVG Repo Mixer Tools -->
<!DOCTYPE svg PUBLIC "-//W3C//DTD SVG 1.1//EN" "http://www.w3.org/Graphics/SVG/1.1/DTD/svg11.dtd">
<svg fill="#000000" version="1.1" id="Capa_1" xmlns="http://www.w3.org/2000/svg" xmlns:xlink="http://www.w3.org/1999/xlink" 
	 width="800px" height="800px" viewBox="0 0 45.446 45.446"
	 xml:space="preserve">
<g>
	<g>
		<path d="M4.545,38.391c0,3.891,3.178,7.056,7.067,7.056c3.892,0,7.069-3.165,7.069-7.056V5.452H4.545V38.391z M15.653,8.482
			v24.135h-8.18V8.482H15.653z"/>
		<path d="M19.686,0H3.483C2.389,0,1.502,0.875,1.502,1.969c0,1.095,0.887,1.969,1.981,1.969h16.202
			c1.095,0,1.982-0.875,1.982-1.969C21.667,0.874,20.78,0,19.686,0z"/>
		<path d="M26.762,38.391c0,3.891,3.178,7.056,7.068,7.056s7.068-3.165,7.068-7.056V5.452H26.762V38.391z M37.971,8.482v16.763
			h-8.181V8.482H37.971z"/>
		<path d="M41.963,0H25.76c-1.095,0-1.98,0.875-1.98,1.969c0,1.095,0.887,1.969,1.98,1.969h16.203c1.094,0,1.98-0.875,1.98-1.969
			C43.946,0.874,43.057,0,41.963,0z"/>
	</g>
</g>
</svg>